<?xml version="1.0" encoding="UTF-8" standalone="no"?>
<svg
   xmlns:dc="http://purl.org/dc/elements/1.1/"
   xmlns:cc="http://creativecommons.org/ns#"
   xmlns:rdf="http://www.w3.org/1999/02/22-rdf-syntax-ns#"
   xmlns:svg="http://www.w3.org/2000/svg"
   xmlns="http://www.w3.org/2000/svg"
   xmlns:sodipodi="http://sodipodi.sourceforge.net/DTD/sodipodi-0.dtd"
   xmlns:inkscape="http://www.inkscape.org/namespaces/inkscape"
   width="210mm"
   height="297mm"
   viewBox="0 0 210 297"
   version="1.1"
   id="svg8"
   inkscape:version="1.0 (4035a4fb49, 2020-05-01)"
   sodipodi:docname="circle.svg">
  <defs
     id="defs2" />
  <sodipodi:namedview
     inkscape:pagecheckerboard="true"
     id="base"
     pagecolor="#ffffff"
     bordercolor="#666666"
     borderopacity="1.0"
     inkscape:pageopacity="0"
     inkscape:pageshadow="2"
     inkscape:zoom="0.49497475"
     inkscape:cx="120.73996"
     inkscape:cy="526.69316"
     inkscape:document-units="mm"
     inkscape:current-layer="layer1"
     inkscape:document-rotation="0"
     showgrid="false"
     inkscape:window-width="1920"
     inkscape:window-height="1017"
     inkscape:window-x="-8"
     inkscape:window-y="-8"
     inkscape:window-maximized="1" />
  <metadata
     id="metadata5">
    <rdf:RDF>
      <cc:Work
         rdf:about="">
        <dc:format>image/svg+xml</dc:format>
        <dc:type
           rdf:resource="http://purl.org/dc/dcmitype/StillImage" />
        <dc:title></dc:title>
      </cc:Work>
    </rdf:RDF>
  </metadata>
  <g
     inkscape:label="Layer 1"
     inkscape:groupmode="layer"
     id="layer1">
    <path
       d="m 193.43815,70.750142 c -6.33833,-0.09609 -12.67365,-0.266118 -19.01013,-0.04885 -18.40565,1.813486 -36.69971,4.710432 -54.96858,7.660586 -13.29659,2.152662 -26.687371,4.045576 -39.749444,7.547177 -6.035428,1.617943 -8.691318,2.670689 -14.47915,4.709799 -5.611703,2.256508 -11.125163,4.855669 -16.344092,8.014049 -6.078086,3.678307 -15.329994,8.875697 -22.008554,13.971627 -1.095328,0.83578 -2.141612,1.74177 -3.212417,2.61264 -0.927783,0.90396 -1.91823,1.74032 -2.783345,2.71186 -1.945293,2.18459 -4.982145,6.4478 -6.602375,8.72844 -2.470617,3.47764 -4.9599035,7.06358 -7.2259418,10.69682 -1.107668,1.77599 -2.1382158,3.60488 -3.2073238,5.40732 -1.4530808,2.91205 -3.78390983,7.17444 -4.64275074,10.4323 -0.46819546,1.77601 -0.68650636,3.62693 -0.80003036,5.4673 -0.2077467,3.36789 0.2188979,7.43206 0.88867004,10.72578 0.33636052,1.65411 0.86271268,3.25809 1.29406954,4.88714 2.16799502,5.36937 5.03366422,10.66232 9.27171202,14.53356 2.1582591,1.97146 4.5599171,3.62729 6.9407321,5.28472 7.277013,5.06598 9.272349,5.82491 17.121406,10.01378 9.192905,4.48769 18.687204,8.23581 28.592033,10.52095 12.021573,2.77351 24.31264,3.99773 36.525418,5.33937 16.484163,1.35499 33.170473,3.15956 49.682743,1.10565 2.68215,-0.33363 5.33462,-0.89639 8.00193,-1.34459 5.691,-1.35896 9.05322,-2.00437 14.55181,-3.91375 2.25417,-0.78276 4.60802,-1.38608 6.66942,-2.63155 6.66302,-4.02564 13.348,-8.1193 19.39861,-13.11816 4.44215,-3.67002 6.17185,-10.38233 8.1079,-15.51305 0.46364,-3.34538 1.2162,-6.65979 1.39092,-10.03611 0.37515,-7.24978 -0.52969,-15.12541 -2.2309,-22.1305 -0.91894,-3.78392 -1.81985,-7.64347 -3.50881,-11.11517 -5.58975,-11.48978 -10.21523,-14.05152 -19.46237,-22.7665 -5.34557,-3.48509 -10.43783,-7.45216 -16.03671,-10.45525 C 150.90422,100.1637 138.45715,96.546366 122.51218,92.050625 109.78538,88.462261 94.325185,84.919325 81.290071,82.188973 76.045248,81.090385 70.774142,80.138411 65.516179,79.113132 49.893485,76.422393 57.275152,77.596646 43.379864,75.529307 c 0,0 -11.874814,8.962411 -11.874814,8.962411 v 0 c 15.002953,1.169375 7.032103,0.468179 23.907439,2.16813 5.586745,0.764036 11.190712,1.397399 16.760231,2.292106 13.646512,2.19223 28.97634,5.148033 42.24604,8.966361 14.757,4.246295 28.01443,8.915865 41.40072,16.806075 5.30518,3.12699 10.05841,7.20979 15.08761,10.81468 3.65749,3.84961 7.72288,7.30644 10.97247,11.54881 2.67823,3.49645 4.87159,7.4326 6.68755,11.5065 1.54657,3.46957 2.48426,7.2278 3.32727,10.96069 1.56163,6.91507 2.26845,14.75736 1.6305,21.86644 -0.29849,3.32622 -1.21105,6.55762 -1.81658,9.83643 -1.18819,2.75748 -2.05465,5.69864 -3.56459,8.27245 -1.4291,2.43598 -6.67167,4.23628 -5.17623,6.62693 1.45877,2.33204 5.09961,-1.68997 7.29865,-3.23396 1.98496,-1.39369 -4.39654,1.94229 -6.64347,2.77394 -5.74406,2.12602 -8.71305,2.72301 -14.67634,4.26118 -2.6838,0.51353 -5.35063,1.13973 -8.0514,1.54055 -16.76793,2.48859 -33.80799,1.10928 -50.61306,-0.0258 -9.84063,-1.03907 -14.751663,-1.36966 -24.500813,-3.14849 -13.649234,-2.49041 -27.031183,-6.5381 -39.597097,-12.77637 -2.906232,-1.58629 -5.888325,-3.02476 -8.718695,-4.75889 -8.144962,-4.99036 -15.917548,-11.22403 -20.425428,-20.19907 -0.760123,-1.51337 -1.294582,-3.1429 -1.941871,-4.71435 -0.419615,-1.55295 -0.936916,-3.07982 -1.258852,-4.65886 -0.660761,-3.24092 -1.009478,-6.87499 -0.706089,-10.18885 0.507563,-5.54398 2.85832,-10.39151 5.419901,-15.14656 5.879045,-9.85763 12.25902,-19.66931 20.705458,-27.25996 1.024377,-0.81506 2.026017,-1.66339 3.073127,-2.4452 4.205446,-3.1399 11.390704,-7.456396 -6.068945,3.25053 -1.631398,1.00042 3.278458,-1.97339 4.94844,-2.89921 5.347866,-2.96485 6.020679,-3.13268 11.710216,-5.73209 5.831162,-2.202731 8.767188,-3.430679 14.842265,-5.211329 13.216174,-3.873749 26.816996,-6.066811 40.354333,-8.204898 17.55386,-2.527179 35.11319,-5.467303 52.83577,-6.227005 5.9613,-0.103056 11.9475,-0.04132 17.88153,0.63163 0,0 14.60304,-11.034101 14.60304,-11.034101 z"
       id="path848"
       style="fill:#f30d08;stroke-width:1.16831" />
  </g>
</svg>
